Coordinates
version=1
nRows=13
nColumns=30
inDegrees=yes

Units are S.I. units (second, meters, Newtons, ...)
Angles are in degrees.

endheader
time	floatyaw	floatroll	floatpitch	floatx	floaty	floatz	pro_sup_l	deviation_l	flexion_l	cmc_flexion_l	cmc_abduction_l	mp_flexion_l	ip_flexion_l	2mcp_flexion_l	2mcp_abduction_l	2pm_flexion_l	2md_flexion_l	3mcp_flexion_l	3mcp_abduction_l	3pm_flexion_l	3md_flexion_l	4mcp_flexion_l	4mcp_abduction_l	4pm_flexion_l	4md_flexion_l	5mcp_flexion_l	5mcp_abduction_l	5pm_flexion_l	5md_flexion_l
0.005000	-160.147433	-5.066637	-73.570646	-0.057465	-0.095411	-0.092840	120.293378	39.943639	-12.976893	27.384089	37.475958	-22.398676	-57.649685	15.320976	7.428431	52.727608	38.543982	34.051129	5.741419	47.604628	39.326042	37.017255	-4.428112	44.193582	52.176323	19.566230	-14.542063	54.127422	63.517769
0.015000	-160.147433	-5.066637	-73.570646	-0.057375	-0.091385	-0.092726	120.179561	40.136358	-13.285196	27.518557	37.284854	-22.842471	-57.957942	16.026170	7.486315	52.103497	38.286437	34.684133	5.746571	46.828661	38.920478	37.478777	-4.423133	43.751589	51.841067	20.112914	-14.567388	53.830977	63.499263
0.025000	-160.147433	-5.066637	-73.570646	-0.057203	-0.087177	-0.092555	119.926756	40.344511	-13.642214	27.626679	37.170261	-23.288988	-58.305120	17.045363	7.514043	51.429372	38.070238	35.550273	5.766783	45.659414	38.404352	38.059854	-4.408477	43.152845	51.327033	20.761544	-14.566416	53.403275	63.458161
0.035000	-160.147433	-5.066637	-73.570646	-0.056992	-0.083374	-0.092323	119.451522	40.524392	-13.918425	27.698526	37.180563	-23.705982	-58.673667	18.238332	7.586667	51.011038	38.054320	36.578587	5.791080	44.313714	37.863930	38.790650	-4.404741	42.441268	50.646400	21.516973	-14.544274	52.860262	63.325118
0.045000	-160.147433	-5.066637	-73.570646	-0.056772	-0.080476	-0.092057	118.732840	40.622503	-14.002158	27.724061	37.347392	-24.059838	-59.029726	19.337621	7.770483	51.150688	38.373258	37.602719	5.805067	43.114335	37.411092	39.611885	-4.427753	41.740252	49.861636	22.300173	-14.516106	52.279206	63.055481
0.055000	-160.147433	-5.066637	-73.570646	-0.056544	-0.078725	-0.091802	117.824759	40.601175	-13.836229	27.691114	37.669618	-24.322470	-59.335000	20.059635	8.082601	51.988315	39.066203	38.417984	5.798527	42.340041	37.132523	40.380828	-4.480364	41.188746	49.082574	22.961207	-14.497771	51.773079	62.672464
0.065000	-160.147433	-5.066637	-73.570646	-0.056298	-0.078044	-0.091609	116.839459	40.457145	-13.431922	27.587096	38.106886	-24.472733	-59.556163	20.235461	8.474270	53.411134	40.042987	38.867224	5.771957	42.102949	37.048949	40.929088	-4.550921	40.877939	48.429516	23.338019	-14.496921	51.448066	62.262438
0.075000	-160.147433	-5.066637	-73.570646	-0.056021	-0.078110	-0.091512	115.906623	40.222675	-12.857853	27.404995	38.588118	-24.497344	-59.671509	19.882739	8.853652	55.090338	41.114850	38.904314	5.736407	42.323022	37.111142	41.139625	-4.619792	40.820097	47.984892	23.329674	-14.509573	51.362022	61.928478
0.085000	-160.147433	-5.066637	-73.570646	-0.055720	-0.078510	-0.091519	115.128942	39.949734	-12.211725	27.149739	39.032823	-24.395745	-59.675428	19.178907	9.134021	56.626162	42.075706	38.600545	5.706576	42.799353	37.231345	40.996680	-4.669823	40.958223	47.763276	22.941219	-14.523893	51.503766	61.735374
0.095000	-160.147433	-5.066637	-73.570646	-0.055413	-0.078904	-0.091612	114.552615	39.687022	-11.586689	26.838840	39.377353	-24.184729	-59.579468	18.361504	9.273683	57.718810	42.785951	38.098749	5.692788	43.317771	37.326037	40.582423	-4.694045	41.201609	47.715859	22.275808	-14.527921	51.801963	61.681723
0.105000	-160.147433	-5.066637	-73.570646	-0.055118	-0.079114	-0.091750	114.162348	39.462059	-11.044100	26.495379	39.594676	-23.895632	-59.408392	17.621075	9.284007	58.274053	43.212546	37.548133	5.697153	43.729873	37.345914	40.029541	-4.696595	41.463190	47.762840	21.483223	-14.515680	52.155987	61.712302
0.115000	-160.147433	-5.066637	-73.570646	-0.054846	-0.079128	-0.091896	113.899574	39.276059	-10.601928	26.138127	39.697897	-23.563832	-59.191997	17.043100	9.209090	58.398083	43.412269	37.053426	5.714752	43.977609	37.283954	39.461939	-4.687922	41.682415	47.832178	20.697088	-14.488280	52.472241	61.756056
0.125000	-160.147433	-5.066637	-73.570646	-0.054587	-0.079029	-0.092026	113.693115	39.111285	-10.241474	25.776002	39.726493	-23.217954	-58.956453	16.614314	9.097762	58.303155	43.480409	36.654936	5.737289	44.076414	37.165656	38.954286	-4.678437	41.831543	47.884072	19.992780	-14.450710	52.691682	61.762427
